<?xml version="1.0" encoding="UTF-8" standalone="no"?><!DOCTYPE svg PUBLIC "-//W3C//DTD SVG 1.1//EN" "http://www.w3.org/Graphics/SVG/1.1/DTD/svg11.dtd"><svg width="100%" height="100%" viewBox="0 0 512 512" version="1.1" xmlns="http://www.w3.org/2000/svg" xmlns:xlink="http://www.w3.org/1999/xlink" xml:space="preserve" xmlns:serif="http://www.serif.com/" style="fill-rule:evenodd;clip-rule:evenodd;stroke-linejoin:round;stroke-miterlimit:2;"><path d="M124.088,344.239l2.693,-164.67l158.402,-110.914l13.93,11.247l-155.274,108.724l-0.831,50.779l189.4,-132.619l55.056,44.453l0.448,18.812l-1.257,76.866l-61.453,43.03l-1.63,99.663l-76.74,53.734l-2.32,-1.873l0.351,-21.487l0.225,-0.158l-0.22,-0.177l1.215,-74.302l-64.6,45.234l-57.394,-46.342Zm183.708,-42.104l-44.309,31.025l-1.221,74.637l44.309,-31.025l1.221,-74.637Zm23.876,-173.833l-39.647,27.761l37.403,30.2l39.647,-27.761l-37.403,-30.2Zm-149.989,240.33l0.896,-54.806l-36.832,25.79l35.936,29.015Zm19.643,-149.061l-2.19,133.91l47.356,-33.159l1.257,-76.866l67.013,-46.923l-37.403,-30.2l-76.034,53.239Zm169.181,-37.333l-105.762,74.055l-0.848,51.841l105.762,-74.055l0.848,-51.841Zm-227.847,78.411l-0.933,57.043l41.261,-28.891l0.933,-57.043l-41.261,28.891Z" style="fill:#00796b;"/></svg>