<svg width="512" height="512" viewBox="0 0 512 512" xmlns="http://www.w3.org/2000/svg" aria-hidden="true" focusable="false">
  <path d="M124.088 344.239l2.693-164.67 158.402-110.914 13.93 11.247-155.274 108.724-.831 50.779 189.4-132.619 55.056 44.453.448 18.812-1.257 76.866-61.453 43.03-1.63 99.663-76.74 53.734-2.32-1.873.351-21.487.225-.158-.22-.177 1.215-74.302-64.6 45.234-57.394-46.342zm183.708-42.104l-44.309 31.025-1.221 74.637 44.309-31.025 1.221-74.637zm23.876-173.833l-39.647 27.761 37.403 30.2 39.647-27.761-37.403-30.2zm-149.989 240.33l.896-54.806-36.832 25.79 35.936 29.015zm19.643-149.061l-2.19 133.91 47.356-33.159 1.257-76.866 67.013-46.923-37.403-30.2-76.034 53.239zm169.181-37.333l-105.762 74.055-.848 51.841 105.762-74.055.848-51.841zm-227.847 78.411l-.933 57.043 41.261-28.891.933-57.043-41.261 28.891z" fill="#00796b"/>
</svg>
